<svg data-v-423bf9ae="" xmlns="http://www.w3.org/2000/svg" viewBox="0 0 6130.925772311786 6314" class="iconAbove"><!----><!----><!----><g data-v-423bf9ae="" id="b03be4cb-5ae0-437a-a047-2831766c3ddd" fill="#242E31" transform="matrix(4.636785312648574,0,0,4.636785312648574,2845.8879310930997,6252.031470156688)"><path d="M7.32 7.81Q8.20 8.58 8.20 9.39L8.20 9.39Q8.20 9.93 7.84 10.46L7.84 10.46Q6.55 12.31 4.82 12.74L4.82 12.74Q4.37 12.85 3.81 12.85L3.81 12.85Q2.49 12.85 1.29 12.19L1.29 12.19Q0.71 11.89 0.49 11.40Q0.27 10.91 0.27 10.23L0.27 10.23Q0.27 9.76 0.38 8.86L0.38 8.86Q0.42 8.62 0.77 8.62L0.77 8.62Q1.16 8.62 1.57 8.88Q1.97 9.13 1.93 9.44L1.93 9.44Q1.92 9.55 1.86 9.93Q1.81 10.32 1.81 10.64L1.81 10.64Q1.81 11.37 2.16 11.62L2.16 11.62Q2.51 11.87 3.07 11.87L3.07 11.87Q3.63 11.87 4.23 11.63L4.23 11.63Q4.69 11.45 5.26 11.03Q5.82 10.61 6.22 10.08Q6.62 9.55 6.62 9.04L6.62 9.04Q6.62 8.64 6.34 8.30L6.34 8.30Q6.06 7.98 5.55 7.69Q5.04 7.39 4.20 7L4.20 7Q3.16 6.51 2.54 6.14Q1.92 5.77 1.47 5.26Q1.02 4.75 1.02 4.10L1.02 4.10Q1.02 3.81 1.09 3.58L1.09 3.58Q1.43 2.32 2.75 1.77Q4.07 1.22 5.61 1.22L5.61 1.22Q6.29 1.22 6.79 1.30Q7.29 1.39 7.63 1.67L7.63 1.67Q8.01 1.97 8.01 2.53L8.01 2.53Q8.01 2.87 7.90 3.20Q7.80 3.53 7.59 4.09L7.59 4.09Q7.43 4.47 7.41 4.55L7.41 4.55Q7.32 4.79 6.94 4.79L6.94 4.79Q6.57 4.79 6.20 4.58Q5.84 4.37 5.84 4.10L5.84 4.10Q5.84 4.03 5.85 3.99L5.85 3.99L6.06 3.39Q6.20 3.00 6.26 2.80L6.26 2.80L6.36 2.21L6.36 2.21Q4.59 2.18 3.54 2.93L3.54 2.93Q3.12 3.21 2.89 3.58Q2.66 3.95 2.66 4.33L2.66 4.33Q2.66 4.98 3.32 5.46L3.32 5.46Q3.79 5.80 4.38 6.09Q4.96 6.38 5.08 6.45L5.08 6.45Q5.89 6.86 6.39 7.14Q6.89 7.42 7.32 7.81L7.32 7.81ZM14.52 3.99Q14.74 4.06 14.73 4.28L14.73 4.28Q14.34 8.04 13.58 12.11L13.58 12.11Q13.52 12.38 13.19 12.56Q12.85 12.74 12.52 12.74L12.52 12.74Q12.31 12.74 12.18 12.65Q12.05 12.56 12.10 12.39L12.10 12.39Q12.43 10.93 12.66 9.41Q12.88 7.88 13.09 5.91L13.09 5.91Q11.94 6.97 10.79 8.23L10.79 8.23L10.02 12.49Q9.97 12.75 9.62 12.95Q9.27 13.15 8.92 13.15L8.92 13.15Q8.71 13.15 8.60 13.05Q8.48 12.96 8.51 12.78L8.51 12.78L9.20 8.93Q9.03 8.89 9.03 8.74L9.03 8.74Q9.03 8.62 9.16 8.46L9.16 8.46L9.32 8.23L10.58 1.39Q10.63 1.13 10.98 0.95Q11.33 0.77 11.66 0.77L11.66 0.77Q11.86 0.77 11.97 0.85Q12.08 0.94 12.05 1.09L12.05 1.09L11.16 6.16Q12.19 5.12 13.47 4.19L13.47 4.19Q13.87 3.91 14.22 3.91L14.22 3.91Q14.39 3.91 14.52 3.99L14.52 3.99L14.52 3.99ZM16.34 10.51Q16.31 10.68 16.31 10.75L16.31 10.75Q16.31 11.31 16.86 11.31L16.86 11.31Q17.18 11.31 17.64 11.13L17.64 11.13Q18.06 10.96 19.19 10.42L19.19 10.42Q19.22 10.07 19.26 9.74Q19.29 9.41 19.32 9.14L19.32 9.14L19.42 8.18Q18.45 8.64 17.98 8.90L17.98 8.90Q17.28 9.31 16.86 9.67Q16.44 10.02 16.34 10.51L16.34 10.51ZM19.98 3.92Q20.61 3.92 20.82 4.23Q21.04 4.55 21.04 5.15L21.04 5.15L21.03 5.54Q20.97 6.57 20.78 8.54L20.78 8.54Q20.73 8.82 20.68 9.48L20.68 9.48Q20.62 9.88 20.58 10.14L20.58 10.14Q20.73 10.22 20.73 10.36L20.73 10.36Q20.73 10.46 20.64 10.65L20.64 10.65L20.58 10.72L20.50 10.81Q20.40 11.52 20.40 12.03L20.40 12.03Q20.59 12.14 20.59 12.29L20.59 12.29Q20.59 12.53 20.24 12.80L20.24 12.80Q20.15 12.87 20.02 12.94L20.02 12.94Q19.92 12.99 19.75 13.03Q19.57 13.08 19.40 13.08L19.40 13.08Q18.89 13.08 18.93 12.70L18.93 12.70L19.04 11.52Q17.16 12.42 16.16 12.42L16.16 12.42Q14.88 12.42 14.88 11.05L14.88 11.05Q14.88 9.73 16.25 8.81Q17.61 7.88 19.52 7.14L19.52 7.14Q19.57 6.59 19.60 6.03L19.60 6.03Q19.60 5.92 19.61 5.75Q19.63 5.59 19.63 5.38L19.63 5.38Q19.63 5.11 19.59 5.03L19.59 5.03L19.54 4.97L19.53 4.97Q19.32 4.97 18.75 5.54L18.75 5.54Q18.23 6.05 17.46 7.06L17.46 7.06Q17.35 7.21 17.09 7.31Q16.83 7.41 16.56 7.41L16.56 7.41Q16.37 7.41 16.23 7.34Q16.10 7.27 16.10 7.13L16.10 7.13Q16.10 7.01 16.21 6.83L16.21 6.83Q18.14 3.92 19.98 3.92L19.98 3.92ZM25.38 0.21Q26.15 0.21 26.44 0.87Q26.73 1.53 26.73 2.59L26.73 2.59Q26.73 2.72 26.68 3.81L26.68 3.81Q26.66 4.17 26.66 4.30L26.66 4.30Q26.64 4.58 26.31 4.77Q25.98 4.97 25.63 4.97L25.63 4.97Q25.14 4.97 25.14 4.58L25.14 4.58Q25.14 4.35 25.17 3.85L25.17 3.85Q25.21 3.36 25.21 2.88L25.21 2.88Q25.21 2.38 25.16 1.99L25.16 1.99Q25.13 1.88 25.09 1.74Q25.05 1.60 25.03 1.53L25.03 1.53L25.02 1.47L24.91 1.85Q24.60 2.91 24.43 3.57Q24.26 4.23 24.16 4.97L24.16 4.97Q24.08 5.52 24.05 5.90Q24.01 6.29 23.98 6.83L23.98 6.83Q25.00 6.72 25.83 6.68L25.83 6.68Q26.28 6.66 26.28 6.92L26.28 6.92Q26.28 7.11 26.05 7.34Q25.82 7.57 25.56 7.62L25.56 7.62Q24.72 7.77 23.91 7.87L23.91 7.87L23.84 9.46Q23.73 11.80 23.73 12.08L23.73 12.08Q23.72 12.36 23.36 12.57Q23.00 12.78 22.64 12.78L22.64 12.78Q22.43 12.78 22.29 12.69Q22.15 12.60 22.15 12.42L22.15 12.42Q22.15 11.23 22.29 8.93L22.29 8.93L22.33 8.04L20.73 8.19Q20.50 8.22 20.38 8.15Q20.26 8.08 20.26 7.94L20.26 7.94Q20.26 7.73 20.49 7.49Q20.72 7.25 20.99 7.22L20.99 7.22L22.39 7.04Q22.47 5.82 22.59 5.06Q22.71 4.30 22.99 3.11L22.99 3.11Q23.20 2.30 23.45 1.69Q23.70 1.08 24.18 0.64Q24.65 0.21 25.38 0.21L25.38 0.21ZM28.92 1.71Q28.77 1.67 28.62 1.67L28.62 1.67Q28.31 1.67 28.07 1.82L28.07 1.82Q27.76 1.99 27.72 2.16L27.72 2.16Q27.54 2.81 27.48 3.02L27.48 3.02L27.48 3.07Q27.48 3.14 27.54 3.20Q27.59 3.26 27.66 3.29L27.66 3.29Q27.78 3.35 27.92 3.35L27.92 3.35Q28.14 3.35 28.46 3.21Q28.77 3.08 28.87 2.84L28.87 2.84Q28.95 2.60 29.11 2.00L29.11 2.00L29.11 1.97Q29.11 1.90 29.05 1.83Q28.99 1.75 28.92 1.71L28.92 1.71ZM28.84 4.30L28.38 7.32Q28.29 7.88 28.06 9.35Q27.83 10.81 27.68 12.00L27.68 12.00Q27.64 12.26 27.31 12.45Q26.98 12.64 26.64 12.64L26.64 12.64Q26.42 12.64 26.30 12.55Q26.18 12.46 26.21 12.28L26.21 12.28Q26.45 10.88 26.72 9.08Q26.99 7.28 27.10 6.51L27.10 6.51L27.40 4.59Q27.44 4.34 27.78 4.16Q28.13 3.98 28.45 3.98L28.45 3.98Q28.64 3.98 28.76 4.06Q28.87 4.14 28.84 4.30L28.84 4.30ZM35.11 4.77Q35.21 4.61 35.59 4.42Q35.98 4.23 36.27 4.23L36.27 4.23Q36.69 4.23 36.64 4.62L36.64 4.62Q36.64 4.66 36.62 4.75Q36.61 4.83 36.60 4.87L36.60 4.87L36.60 4.90Q36.46 5.84 36.28 7.15Q36.11 8.46 36.01 9.20L36.01 9.20L35.64 11.89Q35.60 12.17 35.25 12.36Q34.89 12.56 34.52 12.56L34.52 12.56Q34.30 12.56 34.17 12.46Q34.03 12.36 34.06 12.18L34.06 12.18Q34.22 10.98 34.55 8.57L34.55 8.57L34.41 8.81Q34.05 9.42 33.87 9.70L33.87 9.70Q33.24 10.68 32.53 11.35Q31.82 12.03 30.91 12.25L30.91 12.25Q30.56 12.33 30.28 12.33L30.28 12.33Q28.97 12.33 28.97 10.54L28.97 10.54Q28.97 9.70 29.23 8.63Q29.50 7.56 29.84 6.62Q30.18 5.68 30.44 5.19L30.44 5.19Q30.53 5.00 30.88 4.85Q31.22 4.70 31.54 4.70L31.54 4.70Q31.74 4.70 31.86 4.77Q31.98 4.84 31.98 4.97L31.98 4.97Q31.98 5.03 31.93 5.14L31.93 5.14Q31.00 7.20 30.72 8.88L30.72 8.88L30.65 9.25Q30.53 9.84 30.53 10.15L30.53 10.15Q30.53 10.30 30.55 10.37L30.55 10.37Q30.72 11.09 31.09 11.05L31.09 11.05Q31.25 11.03 31.47 10.78Q31.68 10.53 31.74 10.47L31.74 10.47Q32.42 9.67 32.98 8.73Q33.54 7.78 34.29 6.36L34.29 6.36Q34.66 5.59 35.11 4.77L35.11 4.77ZM37.80 1.39Q37.83 1.12 38.17 0.93Q38.51 0.74 38.85 0.74L38.85 0.74Q39.06 0.74 39.17 0.83Q39.28 0.91 39.27 1.09L39.27 1.09Q38.86 4.75 38.43 8.40L38.43 8.40L38.01 12.05Q37.98 12.32 37.63 12.52Q37.28 12.71 36.93 12.71L36.93 12.71Q36.46 12.71 36.50 12.35L36.50 12.35L37.16 6.86Q37.60 3.00 37.80 1.39L37.80 1.39ZM40.63 1.39Q40.66 1.12 41.00 0.93Q41.34 0.74 41.68 0.74L41.68 0.74Q41.89 0.74 42.00 0.83Q42.11 0.91 42.10 1.09L42.10 1.09Q41.69 4.75 41.26 8.40L41.26 8.40L40.84 12.05Q40.81 12.32 40.46 12.52Q40.11 12.71 39.76 12.71L39.76 12.71Q39.28 12.71 39.33 12.35L39.33 12.35L39.98 6.86Q40.43 3.00 40.63 1.39L40.63 1.39ZM43.51 10.51Q43.48 10.68 43.48 10.75L43.48 10.75Q43.48 11.31 44.03 11.31L44.03 11.31Q44.35 11.31 44.81 11.13L44.81 11.13Q45.23 10.96 46.37 10.42L46.37 10.42Q46.40 10.07 46.43 9.74Q46.47 9.41 46.49 9.14L46.49 9.14L46.59 8.18Q45.63 8.64 45.15 8.90L45.15 8.90Q44.45 9.31 44.03 9.67Q43.61 10.02 43.51 10.51L43.51 10.51ZM47.15 3.92Q47.78 3.92 48.00 4.23Q48.22 4.55 48.22 5.15L48.22 5.15L48.20 5.54Q48.15 6.57 47.95 8.54L47.95 8.54Q47.91 8.82 47.85 9.48L47.85 9.48Q47.80 9.88 47.75 10.14L47.75 10.14Q47.91 10.22 47.91 10.36L47.91 10.36Q47.91 10.46 47.81 10.65L47.81 10.65L47.75 10.72L47.67 10.81Q47.57 11.52 47.57 12.03L47.57 12.03Q47.77 12.14 47.77 12.29L47.77 12.29Q47.77 12.53 47.42 12.80L47.42 12.80Q47.32 12.87 47.19 12.94L47.19 12.94Q47.10 12.99 46.92 13.03Q46.75 13.08 46.58 13.08L46.58 13.08Q46.06 13.08 46.10 12.70L46.10 12.70L46.21 11.52Q44.34 12.42 43.33 12.42L43.33 12.42Q42.06 12.42 42.06 11.05L42.06 11.05Q42.06 9.73 43.42 8.81Q44.79 7.88 46.69 7.14L46.69 7.14Q46.75 6.59 46.77 6.03L46.77 6.03Q46.77 5.92 46.79 5.75Q46.80 5.59 46.80 5.38L46.80 5.38Q46.80 5.11 46.76 5.03L46.76 5.03L46.72 4.97L46.70 4.97Q46.49 4.97 45.92 5.54L45.92 5.54Q45.40 6.05 44.63 7.06L44.63 7.06Q44.52 7.21 44.26 7.31Q44.00 7.41 43.74 7.41L43.74 7.41Q43.54 7.41 43.41 7.34Q43.27 7.27 43.27 7.13L43.27 7.13Q43.27 7.01 43.39 6.83L43.39 6.83Q45.32 3.92 47.15 3.92L47.15 3.92ZM54.66 3.99Q54.88 4.06 54.87 4.28L54.87 4.28Q54.47 8.04 53.72 12.11L53.72 12.11Q53.66 12.38 53.33 12.56Q52.99 12.74 52.65 12.74L52.65 12.74Q52.44 12.74 52.32 12.65Q52.19 12.56 52.23 12.39L52.23 12.39Q52.57 10.93 52.79 9.41Q53.02 7.88 53.23 5.91L53.23 5.91Q52.08 6.97 50.93 8.23L50.93 8.23L50.16 12.49Q50.11 12.75 49.76 12.95Q49.41 13.15 49.06 13.15L49.06 13.15Q48.85 13.15 48.73 13.05Q48.62 12.96 48.65 12.78L48.65 12.78L49.34 8.93Q49.17 8.89 49.17 8.74L49.17 8.74Q49.17 8.62 49.29 8.46L49.29 8.46L49.46 8.23L50.72 1.39Q50.76 1.13 51.11 0.95Q51.46 0.77 51.80 0.77L51.80 0.77Q52.00 0.77 52.11 0.85Q52.22 0.94 52.19 1.09L52.19 1.09L51.30 6.16Q52.33 5.12 53.61 4.19L53.61 4.19Q54.01 3.91 54.36 3.91L54.36 3.91Q54.53 3.91 54.66 3.99L54.66 3.99L54.66 3.99ZM66.64 7.81Q67.52 8.58 67.52 9.39L67.52 9.39Q67.52 9.93 67.16 10.46L67.16 10.46Q65.87 12.31 64.13 12.74L64.13 12.74Q63.69 12.85 63.13 12.85L63.13 12.85Q61.81 12.85 60.61 12.19L60.61 12.19Q60.03 11.89 59.81 11.40Q59.58 10.91 59.58 10.23L59.58 10.23Q59.58 9.76 59.70 8.86L59.70 8.86Q59.74 8.62 60.09 8.62L60.09 8.62Q60.48 8.62 60.89 8.88Q61.29 9.13 61.25 9.44L61.25 9.44Q61.24 9.55 61.18 9.93Q61.12 10.32 61.12 10.64L61.12 10.64Q61.12 11.37 61.47 11.62L61.47 11.62Q61.82 11.87 62.38 11.87L62.38 11.87Q62.94 11.87 63.55 11.63L63.55 11.63Q64.01 11.45 64.58 11.03Q65.14 10.61 65.54 10.08Q65.94 9.55 65.94 9.04L65.94 9.04Q65.94 8.64 65.66 8.30L65.66 8.30Q65.38 7.98 64.87 7.69Q64.36 7.39 63.52 7L63.52 7Q62.48 6.51 61.86 6.14Q61.24 5.77 60.79 5.26Q60.34 4.75 60.34 4.10L60.34 4.10Q60.34 3.81 60.41 3.58L60.41 3.58Q60.75 2.32 62.07 1.77Q63.39 1.22 64.93 1.22L64.93 1.22Q65.60 1.22 66.11 1.30Q66.61 1.39 66.95 1.67L66.95 1.67Q67.33 1.97 67.33 2.53L67.33 2.53Q67.33 2.87 67.22 3.20Q67.12 3.53 66.91 4.09L66.91 4.09Q66.75 4.47 66.72 4.55L66.72 4.55Q66.64 4.79 66.26 4.79L66.26 4.79Q65.88 4.79 65.52 4.58Q65.16 4.37 65.16 4.10L65.16 4.10Q65.16 4.03 65.17 3.99L65.17 3.99L65.38 3.39Q65.52 3.00 65.58 2.80L65.58 2.80L65.67 2.21L65.67 2.21Q63.91 2.18 62.86 2.93L62.86 2.93Q62.44 3.21 62.21 3.58Q61.98 3.95 61.98 4.33L61.98 4.33Q61.98 4.98 62.64 5.46L62.64 5.46Q63.11 5.80 63.69 6.09Q64.27 6.38 64.40 6.45L64.40 6.45Q65.21 6.86 65.71 7.14Q66.21 7.42 66.64 7.81L66.64 7.81ZM73.84 3.99Q74.06 4.06 74.05 4.28L74.05 4.28Q73.65 8.04 72.90 12.11L72.90 12.11Q72.84 12.38 72.51 12.56Q72.17 12.74 71.83 12.74L71.83 12.74Q71.62 12.74 71.50 12.65Q71.37 12.56 71.41 12.39L71.41 12.39Q71.75 10.93 71.97 9.41Q72.20 7.88 72.41 5.91L72.41 5.91Q71.26 6.97 70.11 8.23L70.11 8.23L69.34 12.49Q69.29 12.75 68.94 12.95Q68.59 13.15 68.24 13.15L68.24 13.15Q68.03 13.15 67.91 13.05Q67.80 12.96 67.83 12.78L67.83 12.78L68.52 8.93Q68.35 8.89 68.35 8.74L68.35 8.74Q68.35 8.62 68.47 8.46L68.47 8.46L68.64 8.23L69.90 1.39Q69.94 1.13 70.29 0.95Q70.64 0.77 70.98 0.77L70.98 0.77Q71.18 0.77 71.29 0.85Q71.40 0.94 71.37 1.09L71.37 1.09L70.48 6.16Q71.51 5.12 72.79 4.19L72.79 4.19Q73.19 3.91 73.54 3.91L73.54 3.91Q73.71 3.91 73.84 3.99L73.84 3.99L73.84 3.99ZM81.03 4.77Q81.13 4.61 81.52 4.42Q81.90 4.23 82.19 4.23L82.19 4.23Q82.61 4.23 82.56 4.62L82.56 4.62Q82.56 4.66 82.54 4.75Q82.53 4.83 82.52 4.87L82.52 4.87L82.52 4.90Q82.38 5.84 82.20 7.15Q82.03 8.46 81.93 9.20L81.93 9.20L81.56 11.89Q81.52 12.17 81.17 12.36Q80.81 12.56 80.44 12.56L80.44 12.56Q80.22 12.56 80.09 12.46Q79.95 12.36 79.98 12.18L79.98 12.18Q80.14 10.98 80.47 8.57L80.47 8.57L80.33 8.81Q79.97 9.42 79.79 9.70L79.79 9.70Q79.16 10.68 78.45 11.35Q77.74 12.03 76.83 12.25L76.83 12.25Q76.48 12.33 76.20 12.33L76.20 12.33Q74.89 12.33 74.89 10.54L74.89 10.54Q74.89 9.70 75.15 8.63Q75.42 7.56 75.76 6.62Q76.10 5.68 76.36 5.19L76.36 5.19Q76.45 5.00 76.80 4.85Q77.14 4.70 77.46 4.70L77.46 4.70Q77.66 4.70 77.78 4.77Q77.90 4.84 77.90 4.97L77.90 4.97Q77.90 5.03 77.85 5.14L77.85 5.14Q76.92 7.20 76.64 8.88L76.64 8.88L76.57 9.25Q76.45 9.84 76.45 10.15L76.45 10.15Q76.45 10.30 76.47 10.37L76.47 10.37Q76.64 11.09 77.01 11.05L77.01 11.05Q77.17 11.03 77.39 10.78Q77.60 10.53 77.66 10.47L77.66 10.47Q78.34 9.67 78.90 8.73Q79.46 7.78 80.21 6.36L80.21 6.36Q80.58 5.59 81.03 4.77L81.03 4.77ZM87.61 4.09Q87.71 3.95 88.01 3.84Q88.31 3.74 88.58 3.74L88.58 3.74Q88.77 3.74 88.89 3.79Q89.01 3.85 89.01 3.98L89.01 3.98Q89.01 4.07 88.94 4.19L88.94 4.19Q87.79 6.10 87.02 7.99Q86.24 9.87 85.82 11.89L85.82 11.89Q85.76 12.15 85.42 12.37Q85.08 12.59 84.74 12.59L84.74 12.59Q84.36 12.59 84.27 12.29L84.27 12.29Q83.73 10.72 83.52 9.09Q83.30 7.46 83.12 4.87L83.12 4.87L83.10 4.58Q83.09 4.27 83.48 4.03Q83.86 3.79 84.24 3.79L84.24 3.79Q84.60 3.79 84.62 4.05L84.62 4.05Q84.64 4.38 84.64 4.58L84.64 4.58L84.64 4.62Q84.80 7.29 85.09 8.96L85.09 8.96Q86.06 6.19 87.61 4.09L87.61 4.09ZM93.00 7.71Q93.00 6.23 91.27 5.38L91.27 5.38Q90.83 5.74 90.40 6.34L90.40 6.34Q89.87 7.11 89.52 8.06L89.52 8.06Q89.38 8.44 89.25 9.09Q89.12 9.74 89.12 10.30L89.12 10.30Q89.12 10.88 89.29 11.22Q89.45 11.56 89.81 11.56L89.81 11.56Q90.10 11.56 90.50 11.33L90.50 11.33Q91.57 10.70 92.29 9.76Q93.00 8.82 93.00 7.71L93.00 7.71ZM93.39 5.18Q93.90 5.66 94.17 6.26Q94.44 6.86 94.44 7.53L94.44 7.53Q94.44 8.50 93.88 9.49L93.88 9.49Q93.51 10.16 92.78 10.91Q92.05 11.65 91.16 12.16Q90.27 12.67 89.46 12.67L89.46 12.67Q88.96 12.67 88.51 12.45L88.51 12.45Q87.56 11.93 87.56 10.58L87.56 10.58Q87.56 9.62 87.99 8.46Q88.42 7.31 88.91 6.51L88.91 6.51Q90.10 4.62 91.42 4.13L91.42 4.13Q91.78 3.99 92.20 3.99L92.20 3.99Q92.69 3.99 93.03 4.23Q93.37 4.48 93.42 5.00L93.42 5.00L93.42 5.05Q93.42 5.10 93.39 5.18L93.39 5.18Z"></path></g><defs data-v-423bf9ae=""><linearGradient data-v-423bf9ae="" gradientTransform="rotate(25)" id="3ea0cc41-910c-4acd-91ad-b4472f84da5a" x1="0%" y1="0%" x2="100%" y2="0%"><stop data-v-423bf9ae="" offset="0%" style="stop-color: rgb(39, 109, 142); stop-opacity: 1;"></stop><stop data-v-423bf9ae="" offset="100%" style="stop-color: rgb(221, 223, 212); stop-opacity: 1;"></stop></linearGradient></defs><g data-v-423bf9ae="" id="defc088b-e25a-49fe-b3ff-00e14b846efa" transform="matrix(8.32666761610243,0,0,8.32666761610243,-1098.5827776150254,-1043.0340387132792)" stroke="none" fill="url(#3ea0cc41-910c-4acd-91ad-b4472f84da5a)"><path d="M661.8 226L637 215.3c-12.6-5.4-27.4.4-32.8 13L567.3 314 269.8 185.9c-4.2-34.1-33.4-60.6-68.6-60.6-38.1 0-69.2 31-69.2 69.1 0 38.1 31 69.2 69.2 69.2 12.3 0 23.9-3.2 33.9-8.9l322.4 138.9 27.1 11.7c10.8 4.7 23.3 1 30-8.2 1.1-1.5 2-3.1 2.7-4.8l11.1-25.7.2-.4 46.3-107.5c5.4-12.5-.5-27.2-13.1-32.7zm-460.6 5.9c-2.4 0-4.7-.2-7-.7-17.3-3.3-30.4-18.5-30.4-36.8 0-20.6 16.8-37.4 37.4-37.4 11.2 0 21.2 4.9 28 12.7 5.8 6.6 9.4 15.3 9.4 24.8 0 20.6-16.8 37.4-37.4 37.4z"></path><path d="M628.3 366.7c-.1.3-.2.5-.3.8l-10.7 24.8s0 .1-.1.1l11.1-25.7zM545.3 279.8L387.9 212c-6.1-2.6-8.9-9.7-6.3-15.8l21-48.7c2.6-6.1 9.7-8.9 15.8-6.3L575.8 209c6.1 2.6 8.9 9.7 6.3 15.8l-21 48.7c-2.6 6.1-9.7 8.9-15.8 6.3zM614.5 397.2c-6.7 9.2-19.2 12.9-30.1 8.3l-24.8-10.7c-.7-.3-1.5-.7-2.2-1.1l27.1 11.7c10.9 4.6 23.3 1 30-8.2zM630.3 632.5l-24.9-10.6s-.1 0-.1-.1l25 10.7zM717.5 549.4l67.1-157.7c2.6-6.1 9.7-8.9 15.7-6.3l48.7 20.7c6.1 2.6 8.9 9.7 6.3 15.7l-67.1 157.7c-2.6 6.1-9.7 8.9-15.7 6.3l-48.7-20.7c-6-2.6-8.9-9.7-6.3-15.7zM597 616.1l.2.2c0-.1-.1-.1-.2-.2.1 0 .1 0 0 0zM597.2 616.2c.3.3.5.6.8.8-.3-.2-.5-.5-.8-.8zM596.1 615c.3.4.6.7.9 1-6.7-7-9-17.6-5-27l10.6-24.9c.3-.7.7-1.4 1.1-2.1l-11.5 27.1c-1.5 3.6-2.2 7.4-2 11.1 0 .3 0 .5.1.7 0 .3 0 .5.1.8v.1c.1.4.1.9.2 1.3s.1.8.2 1.2c0 .2.1.4.2.6.1.4.2.7.3 1 .1.4.2.8.4 1.2 0 .2.1.3.2.5.1.4.3.8.5 1.1.2.4.3.7.5 1.1.1.2.2.5.4.7 0 .1.1.2.1.3.2.3.3.6.5.8.1.3.3.5.5.7.2.3.4.7.7 1 .2.2.3.5.5.7 0 .4.2.7.5 1zM599.3 618.2c-.4-.4-.8-.7-1.2-1.1.3.3.7.7 1.2 1.1zM375.8 610.9L365 636.6c.1-.2.2-.5.3-.7l10.5-24.9v-.1zM448.8 722.8l158 66.4c6.1 2.6 9 9.6 6.4 15.7l-20.5 48.8c-2.6 6.1-9.6 9-15.7 6.4l-158-66.4c-6.1-2.6-9-9.6-6.4-15.7l20.5-48.8c2.5-6.1 9.6-9 15.7-6.4zM435.5 609l-27.1-11.4c-9.7-4-20.6-1.5-27.5 5.6 6.9-7.2 17.9-9.8 27.6-5.7l24.9 10.5c.8.3 1.5.6 2.1 1zM385.7 381.4l-26-10.8c.3.1.6.2.9.4l25 10.4c.1-.1.1-.1.1 0zM274.1 454.8l-65.7 158.3c-2.5 6.1-9.6 9-15.7 6.5l-48.9-20.3c-6.1-2.5-9-9.6-6.5-15.7L203 425.4c2.5-6.1 9.6-9 15.7-6.5l48.9 20.3c6.2 2.5 9.1 9.5 6.5 15.6z"></path><path d="M798.8 133c-38.1 0-69.2 31-69.2 69.1 0 13.9 4.1 26.8 11.2 37.6L603.7 562l-11.5 27.1c-1.5 3.6-2.2 7.4-2 11.1 0 .2 0 .5.1.7 0 .3 0 .5.1.8v.1c.1.4.1.9.2 1.3s.1.8.2 1.2c0 .2.1.4.2.6.1.4.2.7.3 1 .1.4.2.8.4 1.2 0 .2.1.3.2.5.1.4.3.8.5 1.1.2.4.3.7.5 1.1.1.2.2.5.4.7 0 .1.1.2.1.3.2.3.3.6.5.8.1.3.3.5.5.7.2.3.4.7.7 1 .2.2.3.5.5.7.3.3.5.6.8 1 .2.2.3.4.5.6l.2.2.2.2.1.1c.7.7 1.4 1.4 2.2 2l1.2.9c1.5 1.1 3.1 2 4.8 2.7l25 10.7 1.2.5 107.7 45.8c12.6 5.4 27.4-.6 32.7-13.2l10.6-24.9c5.4-12.6-.6-27.3-13.2-32.7l-85.9-36.5 128.2-301.3c32.1-6 56.4-34.2 56.4-68C868 164 837 133 798.8 133zm27.3 94.7c-6.8 7.3-16.5 11.8-27.3 11.8-20.6 0-37.4-16.8-37.4-37.4 0-.7 0-1.5.1-2.2 1.1-19.6 17.4-35.2 37.4-35.2 20.6 0 37.4 16.8 37.4 37.4 0 9.9-3.9 18.9-10.2 25.6zM392.1 385.2c-1.9-1.6-4-2.9-6.3-3.8l-26-10.8-.3-.1-108.1-44.8c-12.7-5.3-27.4.8-32.6 13.5l-10.4 25c-5.3 12.7.8 27.4 13.5 32.6l86.2 35.8-126.4 304.6c-28.7 8.4-49.7 35-49.7 66.4 0 38.1 31 69.2 69.2 69.2 38.1 0 69.2-31 69.2-69.2 0-16.2-5.6-31.1-15-42.9l132.5-319.5c.4-.7.7-1.4 1-2.1l10.4-25c4.2-10.4 1-22.1-7.2-28.9zM201.2 841c-20.6 0-37.4-16.8-37.4-37.4 0-7.6 2.3-14.6 6.1-20.5 6.7-10.2 18.2-16.9 31.3-16.9 19.3 0 35.2 14.7 37.2 33.5.1 1.3.2 2.6.2 3.9 0 20.6-16.8 37.4-37.4 37.4zM795 736.3c-12.5 0-24.3 3.4-34.5 9.2L435.5 609l-27.1-11.4c-9.7-4-20.6-1.5-27.5 5.6-2.1 2.2-3.9 4.7-5.1 7.7L365 636.6 319.5 745c-5.3 12.7.7 27.4 13.3 32.7l24.9 10.5c12.7 5.3 27.4-.7 32.7-13.3l36.2-86.1 299.9 126c4.5 33.8 33.5 59.9 68.5 59.9 38.1 0 69.2-31 69.2-69.2 0-38.1-31-69.2-69.2-69.2zm0 106.6c-11.3 0-21.4-5-28.2-12.9-5.7-6.6-9.2-15.2-9.2-24.5 0-20.6 16.8-37.4 37.4-37.4 1.9 0 3.7.1 5.6.4 18 2.7 31.9 18.3 31.9 37 0 20.6-16.8 37.4-37.5 37.4z"></path></g><!----></svg>